<svg t="1747532839061" class="icon" viewBox="0 0 1679 1024" version="1.1" xmlns="http://www.w3.org/2000/svg" p-id="5265" width="256" height="256"><path d="M0 812.3392C0 929.23904 375.93088 1024 839.68 1024s839.68-94.76096 839.68-211.6608S1303.42912 600.6784 839.68 600.6784 0 695.43936 0 812.3392z" fill="#F5F5F5" p-id="5266"></path><path d="M1080.15616 349.94176v43.95008a45.64992 45.64992 0 0 1-45.42464 45.85472H644.56704a45.64992 45.64992 0 0 1-45.42464-45.85472v-43.95008a45.64992 45.64992 0 0 0-45.42464-45.85472H354.7136a52.8384 52.8384 0 0 0-52.57216 53.08416v396.36992a73.05216 73.05216 0 0 0 72.68352 73.37984h929.792a73.03168 73.03168 0 0 0 72.68352-73.37984V357.1712a52.8384 52.8384 0 0 0-52.57216-53.08416h-199.02464a45.64992 45.64992 0 0 0-45.54752 45.85472z" fill="#F5F5F5" p-id="5267"></path><path d="M1304.73984 846.70464H374.62016a92.9792 92.9792 0 0 1-92.42624-93.2864V357.10976a72.74496 72.74496 0 0 1 72.31488-72.99072h199.08608a65.536 65.536 0 0 1 65.16736 65.76128v43.95008a25.86624 25.86624 0 0 0 25.72288 25.96864H1034.8544a25.86624 25.86624 0 0 0 25.72288-25.96864v-43.95008a65.536 65.536 0 0 1 65.16736-65.76128h199.08608a72.74496 72.74496 0 0 1 72.31488 72.99072v396.36992a92.91776 92.91776 0 0 1-92.40576 93.22496z m-950.272-522.79296a33.05472 33.05472 0 0 0-32.8704 33.1776V753.4592a53.248 53.248 0 0 0 52.98176 53.47328h930.0992a53.248 53.248 0 0 0 52.98176-53.47328V357.10976a33.05472 33.05472 0 0 0-32.8704-33.1776h-199.10656a25.86624 25.86624 0 0 0-25.72288 25.96864v43.95008a65.536 65.536 0 0 1-65.16736 65.76128H644.48512a65.536 65.536 0 0 1-65.16736-65.76128v-43.95008a25.86624 25.86624 0 0 0-25.72288-25.96864z" fill="#D9D9D9" p-id="5268"></path><path d="M1333.00224 327.4752L1110.54848 70.38976a45.7728 45.7728 0 0 0-34.63168-15.89248H603.46368a45.75232 45.75232 0 0 0-34.63168 15.89248L346.35776 327.49568l-29.67552-26.19392L539.15648 44.19584a85.07392 85.07392 0 0 1 64.32768-29.4912h472.43264a85.07392 85.07392 0 0 1 64.32768 29.4912l222.47424 257.10592z" fill="#D9D9D9" p-id="5269"></path></svg>