<?xml version="1.0" encoding="utf-8"?>
<!-- Generator: Adobe Illustrator 26.0.3, SVG Export Plug-In . SVG Version: 6.00 Build 0)  -->
<svg version="1.1" id="Layer_1" xmlns="http://www.w3.org/2000/svg" xmlns:xlink="http://www.w3.org/1999/xlink" x="0px" y="0px"
	 viewBox="0 0 80 60" style="enable-background:new 0 0 80 60;" xml:space="preserve">
<style type="text/css">
	.st0{fill-rule:evenodd;clip-rule:evenodd;fill:#F5F5F5;}
	.st1{fill:none;stroke:#D9D9D9;}
	.st2{fill:#FAFAFA;stroke:#D9D9D9;}
	.st3{fill:#E8E8E8;}
</style>
<g>
	<g transform="translate(-472.000000, -1335.000000)">
		<g transform="translate(64.000000, 1114.000000)">
			<g transform="translate(40.000000, 78.000000)">
				<g transform="translate(368.000000, 144.000000)">
					<g>
						<ellipse class="st0" cx="40" cy="44.5" rx="32" ry="7"/>
						<g transform="translate(9.000000, 0.000000)">
							<path class="st1" d="M54,24.3L43.9,12.8c-0.5-0.8-1.2-1.3-1.9-1.3H20.1c-0.7,0-1.5,0.5-1.9,1.3L8,24.3v9.2h46V24.3z"/>
							<path class="st2" d="M40.6,27.4c0-1.6,1-2.9,2.2-2.9H54v18.1c0,2.1-1.3,3.9-2.9,3.9H10.9c-1.6,0-2.9-1.7-2.9-3.9V24.5h11.2
								c1.2,0,2.2,1.3,2.2,2.9l0,0c0,1.6,1,2.9,2.2,2.9h14.8C39.6,30.4,40.6,29,40.6,27.4L40.6,27.4z"/>
						</g>
					</g>
				</g>
			</g>
		</g>
	</g>
</g>
<g>
	<g>
		<g>
			<g>
				<path class="st3" d="M7,22.8c-0.1,0-0.2-0.1-0.2-0.2v-4.9c0-0.1,0.1-0.2,0.2-0.2s0.2,0.1,0.2,0.2v4.9C7.2,22.6,7.1,22.8,7,22.8z
					"/>
				<path class="st3" d="M7,22.9c-0.2,0-0.4-0.2-0.4-0.4v-4.9c0-0.2,0.2-0.4,0.4-0.4s0.4,0.2,0.4,0.4v4.9C7.4,22.6,7.2,22.9,7,22.9z
					 M7,17.4c-0.1,0-0.1,0.1-0.1,0.1v4.9c0,0.1,0.1,0.1,0.1,0.1l0.1-0.1v-4.9C7.1,17.5,7.1,17.4,7,17.4z"/>
			</g>
			<g>
				<path class="st3" d="M7,22.9c-0.2,0-0.4-0.2-0.4-0.4v-4.9c0-0.2,0.2-0.4,0.4-0.4s0.4,0.2,0.4,0.4v4.9C7.4,22.6,7.2,22.9,7,22.9z
					 M7,17.4c-0.1,0-0.1,0.1-0.1,0.1v4.9c0,0.1,0.1,0.1,0.1,0.1l0.1-0.1v-4.9C7.1,17.5,7.1,17.4,7,17.4z"/>
				<path class="st3" d="M7,23c-0.4,0-0.6-0.2-0.6-0.6v-4.9C6.4,17.2,6.6,17,7,17s0.6,0.2,0.6,0.6v4.9C7.6,22.8,7.4,23,7,23z
					 M6.8,22.4c0,0.1,0.1,0.2,0.2,0.2s0.2-0.1,0.2-0.2v-4.9v4.9c0,0.1-0.1,0.2-0.2,0.2S6.8,22.6,6.8,22.4z M7,17.4v0.1l0,0V17.4z"/>
			</g>
		</g>
	</g>
	<g>
		<g>
			<g>
				<path class="st3" d="M9.4,20.2H4.6c-0.1,0-0.2-0.1-0.2-0.2s0.1-0.2,0.2-0.2h4.8c0.1,0,0.2,0.1,0.2,0.2
					C9.8,20.1,9.6,20.2,9.4,20.2z"/>
				<path class="st3" d="M9.4,20.4H4.6c-0.2,0-0.4-0.2-0.4-0.4c0-0.2,0.2-0.4,0.4-0.4h4.8c0.2,0,0.4,0.2,0.4,0.4
					C9.9,20.2,9.6,20.4,9.4,20.4z M4.6,19.9c-0.1,0-0.1,0.1-0.1,0.1c0,0.1,0.1,0.1,0.1,0.1h4.8c0.1,0,0.1-0.1,0.1-0.1
					c0-0.1-0.1-0.1-0.1-0.1H4.6z"/>
			</g>
			<g>
				<path class="st3" d="M9.4,20.4H4.6c-0.2,0-0.4-0.2-0.4-0.4s0.2-0.4,0.4-0.4h4.8c0.2,0,0.4,0.2,0.4,0.4S9.6,20.4,9.4,20.4z
					 M4.6,19.9c-0.1,0-0.1,0.1-0.1,0.1c0,0.1,0.1,0.1,0.1,0.1h4.8c0.1,0,0.1-0.1,0.1-0.1c0-0.1-0.1-0.1-0.1-0.1H4.6z"/>
				<path class="st3" d="M9.4,20.6H4.6C4.2,20.6,4,20.4,4,20s0.2-0.6,0.6-0.6h4.8c0.4,0,0.6,0.2,0.6,0.6S9.8,20.6,9.4,20.6z M4.2,20
					c0,0.1,0.1,0.2,0.2,0.2h4.9c0.1,0,0.2-0.1,0.2-0.2c0,0.1-0.1,0.2-0.2,0.2H4.6C4.4,20.2,4.2,20.1,4.2,20z M4.6,19.9V20l0,0V19.9z
					"/>
			</g>
		</g>
	</g>
</g>
<g>
	<path class="st3" d="M16,10c-1.7,0-3-1.3-3-3s1.3-3,3-3s3,1.3,3,3S17.7,10,16,10z M16,5.1c-1.1,0-1.9,0.9-1.9,1.9S15,8.9,16,8.9
		S17.9,8,17.9,7S17.1,5.1,16,5.1z"/>
</g>
<g>
	<g>
		<g>
			<g>
				<path class="st3" d="M67.9,13.2c-0.2,0-0.3-0.1-0.3-0.3v-5c0-0.2,0.1-0.3,0.3-0.3c0.2,0,0.3,0.1,0.3,0.3v5
					C68.3,13.1,68.2,13.2,67.9,13.2z"/>
				<path class="st3" d="M67.9,13.4c-0.2,0-0.4-0.2-0.4-0.4V8c0-0.2,0.2-0.4,0.4-0.4c0.2,0,0.4,0.2,0.4,0.4v5
					C68.4,13.2,68.2,13.4,67.9,13.4z M67.9,7.8c-0.1,0-0.1,0.1-0.1,0.1v5c0,0.1,0.1,0.1,0.1,0.1l0.1-0.1v-5
					C68.1,7.9,68.1,7.8,67.9,7.8z"/>
			</g>
			<g>
				<path class="st3" d="M67.9,13.4c-0.2,0-0.4-0.2-0.4-0.4V8c0-0.2,0.2-0.4,0.4-0.4c0.2,0,0.4,0.2,0.4,0.4v5
					C68.4,13.2,68.2,13.4,67.9,13.4z M67.9,7.8c-0.1,0-0.1,0.1-0.1,0.1v5c0,0.1,0.1,0.1,0.1,0.1l0.1-0.1v-5
					C68.1,7.9,68.1,7.8,67.9,7.8z"/>
				<path class="st3" d="M67.9,13.5c-0.3,0-0.5-0.2-0.5-0.5V8c0-0.3,0.2-0.5,0.5-0.5c0.3,0,0.5,0.2,0.5,0.5v5
					C68.5,13.3,68.3,13.5,67.9,13.5z M67.6,13c0,0.2,0.1,0.3,0.3,0.3c0.2,0,0.3-0.1,0.3-0.3V8v5c0,0.2-0.1,0.3-0.3,0.3
					C67.7,13.3,67.6,13.1,67.6,13z M67.9,7.8v0.1l0,0V7.8z"/>
			</g>
		</g>
	</g>
	<g>
		<g>
			<g>
				<path class="st3" d="M70.5,10.8h-5c-0.2,0-0.3-0.1-0.3-0.3c0-0.2,0.1-0.3,0.3-0.3h5c0.2,0,0.3,0.1,0.3,0.3
					C70.7,10.7,70.6,10.8,70.5,10.8z"/>
				<path class="st3" d="M70.5,10.9h-5c-0.2,0-0.4-0.2-0.4-0.4c0-0.2,0.2-0.4,0.4-0.4h5c0.2,0,0.4,0.2,0.4,0.4
					C70.9,10.7,70.7,10.9,70.5,10.9z M65.4,10.3c-0.1,0-0.1,0.1-0.1,0.1c0,0.1,0.1,0.1,0.1,0.1h5c0.1,0,0.1-0.1,0.1-0.1
					c0-0.1-0.1-0.1-0.1-0.1H65.4z"/>
			</g>
			<g>
				<path class="st3" d="M70.5,10.9h-5c-0.2,0-0.4-0.2-0.4-0.4c0-0.2,0.2-0.4,0.4-0.4h5c0.2,0,0.4,0.2,0.4,0.4
					C70.9,10.7,70.7,10.9,70.5,10.9z M65.4,10.3c-0.1,0-0.1,0.1-0.1,0.1c0,0.1,0.1,0.1,0.1,0.1h5c0.1,0,0.1-0.1,0.1-0.1
					c0-0.1-0.1-0.1-0.1-0.1H65.4z"/>
				<path class="st3" d="M70.5,11h-5c-0.3,0-0.5-0.2-0.5-0.5c0-0.3,0.2-0.5,0.5-0.5h5c0.3,0,0.5,0.2,0.5,0.5
					C71,10.8,70.8,11,70.5,11z M65.2,10.4c0,0.2,0.1,0.3,0.3,0.3h5c0.2,0,0.3-0.1,0.3-0.3c0,0.2-0.1,0.3-0.3,0.3h-5
					C65.3,10.8,65.2,10.7,65.2,10.4z M65.4,10.3v0.1l0,0V10.3z"/>
			</g>
		</g>
	</g>
</g>
<g>
	<path class="st3" d="M72.5,30c-1.7,0-3-1.3-3-3s1.3-3,3-3s3,1.3,3,3S74.2,30,72.5,30z M72.5,25.1c-1.1,0-1.9,0.8-1.9,1.9
		s0.8,1.9,1.9,1.9c1.1,0,1.9-0.8,1.9-1.9S73.6,25.1,72.5,25.1z"/>
</g>
</svg>
